<?xml version="1.0" encoding="utf-8"?>
<!-- Generator: Adobe Illustrator 19.2.1, SVG Export Plug-In . SVG Version: 6.00 Build 0)  -->
<svg version="1.1" id="Layer_1" xmlns="http://www.w3.org/2000/svg" xmlns:xlink="http://www.w3.org/1999/xlink" x="0px" y="0px"
	 viewBox="0 0 400.2 39" style="enable-background:new 0 0 400.2 39;" xml:space="preserve">
<style type="text/css">
	.st0{fill:#FFFFFF;}
</style>
<g>
	<path class="st0" d="M37.3,36.2c-3.4,2.2-8.6,2.7-12.5,2.7c-1.2,0-2.2-0.1-3.1-0.1c-6.2-0.4-12.2-1.8-16.1-4
		c-0.2-0.1-0.3-0.2-0.4-0.2v3.6H0V28.1h0.4h5.1c0,0.3,0.5,1.2,2.5,2.3c7.1,3.9,21.7,4.7,26.6,1.6c1.2-0.8,1.3-1.5,1.3-2.1
		c-0.2-2.7-8.7-2.7-15-2.6c-7.8,0-15.2,0.1-18.8-3.5c-1.3-1.3-2.1-3-2.1-5c0-3.1,1.8-5.7,5.2-7.2c2.5-1.1,5.8-1.7,9.7-1.7
		c5.2,0,11,1,15.6,2.7c1.7,0.6,3.2,1.3,4.3,2V11h5.1v10.1h-5.1h-0.4c0-0.5-1.4-2.2-5.7-3.8c-4-1.5-9.2-2.4-13.8-2.4
		c-3.2,0-5.8,0.4-7.6,1.2c-2.2,1-2.2,2.1-2.2,2.6c0,0.8,0.3,1.1,0.6,1.4c0.6,0.6,2,1.3,5.4,1.7c2.9,0.3,6.4,0.3,9.8,0.3
		c4.3-0.1,8.8-0.1,12.3,0.6c2.1,0.4,3.8,1,5,1.9c1.6,1.2,2.6,2.9,2.7,4.8C41.1,32.2,39.8,34.6,37.3,36.2z"/>
	<path class="st0" d="M54.9,0c-1.3,4.7-3.7,10.7-5.3,13.3l-3.1,0.4c1.2-3.3,2.7-9.1,3.3-13.2L54.9,0z"/>
	<path class="st0" d="M126.2,11v5.2h-10.2v17.1h10.2v5.2h-25.7v-5.2h10.2v-15L92,37.7L73.4,18.3v15h10.2v5.2H57.9v-5.2h10.2V16.1
		H57.9V11h15.6L92,30.2L110.5,11H126.2z"/>
	<path class="st0" d="M135.2,34.6c-2.6-2.6-4.1-6.2-4.1-9.9c0-3.8,1.5-7.2,4.1-9.9c2.6-2.6,6.2-4.1,9.9-4.1c0.2,0,16.5,0,16.6,0
		c3.7,0.1,7.1,1.5,9.7,4.1c2.6,2.6,4,6.1,4,9.8c0,3.7-1.5,7.2-4,9.8c-2.6,2.6-6,4.1-9.7,4.1c-0.1,0-16.4,0-16.5,0
		C141.4,38.6,137.9,37.2,135.2,34.6z M136.2,24.7c0,4.9,4,8.9,9,8.9c0.1,0,16,0,16.5,0c4.8-0.1,8.8-4,8.8-8.9c0-4.8-3.9-8.8-8.7-8.9
		c-0.6,0-16.4,0-16.5,0C140.2,15.8,136.2,19.8,136.2,24.7z"/>
	<path class="st0" d="M185,34.6c-2.6-2.6-4.1-6.2-4.1-9.9c0-3.8,1.5-7.2,4.1-9.9c2.6-2.6,6.2-4.1,9.9-4.1c0.2,0,16.5,0,16.6,0
		c3.7,0.1,7.1,1.5,9.7,4.1c2.6,2.6,4,6.1,4,9.8c0,3.7-1.5,7.2-4,9.8c-2.6,2.6-6,4.1-9.7,4.1c-0.1,0-16.4,0-16.5,0
		C191.1,38.6,187.6,37.2,185,34.6z M185.9,24.7c0,4.9,4,8.9,9,8.9c0.1,0,16,0,16.5,0c4.8-0.1,8.8-4,8.8-8.9c0-4.8-3.9-8.8-8.7-8.9
		c-0.6,0-16.4,0-16.5,0C189.9,15.8,185.9,19.8,185.9,24.7z"/>
	<path class="st0" d="M291.6,35.3c-1.2,1.2-3.5,2.8-7.3,3.1c-0.3,0-0.6,0-0.9,0c-2.1,0-4.1-0.6-6-1.8c-1.8-1.2-3.3-2.6-4.9-4.2
		c-0.8-0.8-1.7-1.7-2.6-2.5c-3.6-3.1-5.2-3.4-5.2-3.4s0.1,0.1,0.3,0h-14.5v6.7h10.2v5.2H235v-5.2h10.2V16.1H235V11h40.4
		c3.5,0,5.5,1.4,6.7,2.5c1.3,1.5,2,3.4,2,5.5c0,3.6-2.9,7.4-8.2,7.6h-0.2c-0.1,0-0.2,0-0.3,0h-1.5c0.8,0.7,1.5,1.5,2.2,2.2
		c3,3,4.9,4.7,7.8,4.5c4.6-0.3,4.8-3,4.8-3.5h5.2C293.9,31.8,293,33.8,291.6,35.3z M250.5,16.1v5.3h25.1c2.4-0.1,3.3-1.3,3.3-2.4
		c0-1.8-1-2.7-3.1-2.9H250.5z"/>
	<path class="st0" d="M354.2,27.3v11H349h-49.7v-5.2h10.2V16.1h-10.2V11H354V11h0.1v11H349v-5.9h-34.2v5.3h17.4v-3h5.2v11h-5.2v-3
		h-17.4v6.7H349v-5.9H354.2z"/>
	<path class="st0" d="M396.5,36.2C393.1,38.5,388,39,384,39c-1.2,0-2.2-0.1-3.1-0.1c-6.2-0.4-12.2-1.8-16.1-4
		c-0.2-0.1-0.3-0.2-0.4-0.2v3.6h-5.1V28.1h0.4h5.1c0,0.3,0.5,1.2,2.5,2.3c7.1,3.9,21.7,4.7,26.6,1.6c1.2-0.8,1.3-1.5,1.3-2.1
		c-0.2-2.7-8.7-2.7-15-2.6c-7.8,0-15.2,0.1-18.8-3.5c-1.3-1.3-2.1-3-2.1-5c0-3.1,1.8-5.7,5.2-7.2c2.5-1.1,5.8-1.7,9.7-1.7
		c5.2,0,11,1,15.6,2.7c1.7,0.6,3.2,1.3,4.3,2V11h5.1v10.1h-5.1h-0.4c0-0.5-1.4-2.2-5.7-3.8c-4-1.5-9.2-2.4-13.8-2.4
		c-3.2,0-5.8,0.4-7.6,1.2c-2.2,1-2.2,2.1-2.2,2.6c0,0.8,0.3,1.1,0.6,1.4c0.6,0.6,2,1.3,5.4,1.7c2.9,0.3,6.4,0.3,9.8,0.3
		c4.3-0.1,8.8-0.1,12.3,0.6c2.1,0.4,3.8,1,5,1.9c1.6,1.2,2.6,2.9,2.7,4.8C400.3,32.2,399.1,34.6,396.5,36.2z"/>
</g>
</svg>
